<svg width="24" height="24" viewBox="0 0 24 24" fill="none" xmlns="http://www.w3.org/2000/svg">
<path fill-rule="evenodd" clip-rule="evenodd" d="M12 1.86408C17.6894 1.86408 22.1359 6.00952 22.1359 10.9289C22.1359 13.752 20.6889 16.2999 18.3709 17.9782C18.1288 18.1535 17.9854 18.4343 17.9854 18.7332V21.4034C17.8549 21.324 17.7202 21.2423 17.5838 21.1599C16.6611 20.6022 15.5622 19.9488 15.1532 19.7626C14.9661 19.6774 14.7561 19.6565 14.5559 19.703C13.7406 19.8926 12.8842 19.9937 12 19.9937C6.31057 19.9937 1.86408 15.8483 1.86408 10.9289C1.86408 6.00952 6.31057 1.86408 12 1.86408ZM18.4267 23.8603C18.7142 24.0384 19.0755 24.0468 19.371 23.8822C19.6664 23.7177 19.8495 23.4061 19.8495 23.068V19.1969C22.3735 17.2077 24 14.2534 24 10.9289C24 4.80606 18.5359 0 12 0C5.4641 0 6.33314e-07 4.80606 6.33314e-07 10.9289C6.33314e-07 17.0518 5.4641 21.8578 12 21.8578C12.9058 21.8578 13.7892 21.7663 14.6394 21.5926C15.0679 21.8267 15.8426 22.2856 16.6195 22.7552C17.0926 23.0411 17.5446 23.3175 17.8785 23.5226C18.0454 23.625 18.1826 23.7096 18.2781 23.7685L18.4267 23.8603Z" fill="#838383"/>
</svg>
