<svg width="1251" height="1309" viewBox="0 0 1251 1309" fill="none" xmlns="http://www.w3.org/2000/svg">
<path d="M385.108 1147.3C261.162 1074.41 157.459 368.108 340.938 289.281C403.254 266.838 551.302 384.456 614.071 511.591C625.921 406.799 647.632 185.912 752.585 135.245C885.207 82.6838 1155.38 693.371 1107.45 871.404C1066.45 1009.85 590.68 1194.22 385.108 1147.3Z" fill="#FDBD02"/>
<ellipse cx="39.4367" cy="53.9022" rx="39.4367" ry="53.9022" transform="matrix(0.952363 -0.304965 0.290588 0.956848 430.164 645.847)" fill="white"/>
<ellipse cx="42.2536" cy="53.9022" rx="42.2536" ry="53.9022" transform="matrix(0.952363 -0.304965 0.290588 0.956848 650.15 575.403)" fill="white"/>
<path d="M883.92 61.9947C883.377 58.8162 887.705 57.3055 889.16 60.1654L904.657 90.605C905.21 91.6918 906.401 92.283 907.601 92.0667L940.893 86.0669C944.031 85.5014 945.459 89.8153 942.636 91.3308L912.681 107.41C911.601 107.99 911.008 109.204 911.214 110.412L916.996 144.242C917.54 147.421 913.212 148.932 911.756 146.072L896.26 115.632C895.707 114.545 894.516 113.954 893.316 114.17L860.023 120.17C856.885 120.736 855.457 116.422 858.28 114.906L888.236 98.8268C889.316 98.2472 889.909 97.0332 889.702 95.8254L883.92 61.9947Z" fill="#FED767"/>
<path d="M813.129 28.1843C813.045 24.89 817.711 24.1297 818.625 27.2889L821.339 36.6791C821.788 38.2299 823.449 39.0717 824.97 38.5187L834.323 35.118C837.403 33.9981 839.545 38.1578 836.864 40.0524L828.546 45.9303C827.247 46.8478 826.955 48.6545 827.9 49.9197L833.901 57.9502C835.86 60.5725 832.482 63.8855 829.911 61.8624L822.31 55.8806C821.03 54.8735 819.157 55.1786 818.244 56.5431L812.82 64.6471C810.985 67.3879 806.773 65.3117 807.846 62.1953L811.131 52.6519C811.649 51.1483 810.826 49.5233 809.315 49.0635L799.633 46.1184C796.513 45.1691 797.295 40.5329 800.562 40.6187L810.481 40.8795C812.094 40.9219 813.42 39.5933 813.379 37.9762L813.129 28.1843Z" fill="#FDBD02"/>
</svg>
